<svg width="33" height="32" viewBox="0 0 33 32" fill="none" xmlns="http://www.w3.org/2000/svg">
<path d="M32.5764 15.9882C32.5764 7.15816 25.4182 0 16.5882 0C7.75814 0 0.599976 7.15816 0.599976 15.9882C0.599976 24.8182 7.75814 31.9764 16.5882 31.9764C25.4182 31.9764 32.5764 24.8182 32.5764 15.9882Z" fill="#FFFF00"/>
<path d="M4.35195 14.7932C3.87972 12.1151 3.64361 10.776 3.98444 9.66126C4.28424 8.68064 4.88679 7.82012 5.70573 7.20301C6.63673 6.50144 7.97579 6.26533 10.6539 5.79311L18.744 4.3666C21.4221 3.89437 22.7612 3.65826 23.876 3.99909C24.8566 4.29889 25.7171 4.90144 26.3342 5.72038C27.0358 6.65138 27.2719 7.99044 27.7441 10.6685L28.8537 16.961C29.3259 19.6392 29.562 20.9782 29.2212 22.093C28.9214 23.0736 28.3188 23.9342 27.4999 24.5513C26.5689 25.2528 25.2298 25.4889 22.5517 25.9612L14.4616 27.3877C11.7835 27.8599 10.4444 28.096 9.32964 27.7552C8.34903 27.4554 7.4885 26.8528 6.87139 26.0339C6.16983 25.1029 5.93371 23.7638 5.46149 21.0857L4.35195 14.7932Z" fill="#7000FF"/>
<path d="M21.1487 11.084C21.6311 11.1902 22.0979 11.2809 22.5559 11.3981C23.0426 11.522 23.5249 11.6725 24.0072 11.8074C24.0758 11.8273 24.1024 11.8539 24.1024 11.9313C24.1001 13.438 24.1156 14.9469 24.0957 16.4536C24.0736 18.0731 23.5625 19.5377 22.578 20.8253C21.4806 22.2612 20.0447 23.186 18.2881 23.6064C17.5956 23.7723 16.8898 23.8276 16.1796 23.7856C14.4915 23.686 12.9959 23.0909 11.7171 21.9869C10.3985 20.8519 9.56659 19.4227 9.23251 17.7102C9.13738 17.2235 9.09977 16.7301 9.09977 16.2345C9.09755 14.8075 9.09977 13.3827 9.09534 11.9557C9.09534 11.8605 9.12632 11.8273 9.2126 11.8008C10.133 11.5065 11.0711 11.2742 12.0202 11.1017C12.0291 11.0994 12.0379 11.1017 12.06 11.0994C12.06 11.1371 12.06 11.1747 12.06 11.2101C12.06 12.9999 12.0534 14.792 12.0645 16.5819C12.0711 17.4846 12.1928 18.3762 12.5003 19.2324C12.7437 19.9116 13.1043 20.5178 13.6419 21.009C14.1464 21.467 14.7371 21.7568 15.3986 21.8984C16.3345 22.0997 17.2681 22.0842 18.1863 21.7944C19.2704 21.4537 20.0226 20.7324 20.5049 19.7169C20.7638 19.1749 20.9187 18.5996 21.016 18.0089C21.1244 17.3518 21.151 16.6881 21.151 16.0243C21.151 14.427 21.151 12.8274 21.151 11.23C21.1487 11.1879 21.1487 11.1481 21.1487 11.084Z" fill="white"/>
<path d="M17.9162 14.4026C17.0334 14.4026 16.1596 14.4026 15.2812 14.4026C15.2812 12.3451 15.2812 10.2897 15.2812 8.23659C15.5556 8.1503 17.3941 8.14366 17.9162 8.22995C17.9162 10.2875 17.9162 12.3451 17.9162 14.4026Z" fill="white"/>
</svg>
