<svg width="19" height="23" viewBox="0 0 19 23" fill="none" xmlns="http://www.w3.org/2000/svg">
<path fill-rule="evenodd" clip-rule="evenodd" d="M13.765 0.871094C13.8644 2.13231 13.4668 3.39353 12.6614 4.36447C11.8759 5.34542 10.6927 5.90597 9.43985 5.89596C9.36025 4.66476 9.76795 3.45359 10.5734 2.5327C11.3887 1.59179 12.5321 1.00122 13.765 0.871094ZM17.7468 8.29707C16.2982 9.18597 15.4091 10.7441 15.3891 12.4419C15.3891 14.3596 16.538 16.0874 18.3162 16.8365C17.9765 17.9351 17.4671 18.9838 16.7977 19.9227C15.9086 21.261 14.9696 22.5694 13.4811 22.5894C12.7727 22.604 12.296 22.4013 11.7999 22.1903C11.2816 21.9699 10.742 21.7404 9.89455 21.7404C8.99955 21.7404 8.43515 21.9762 7.88985 22.2039C7.41869 22.4007 6.96179 22.5916 6.31818 22.6193C4.8996 22.6793 3.82068 21.2011 2.89161 19.8727C1.04347 17.1661 -0.395089 12.2522 1.53298 8.90632C2.44207 7.27834 4.13037 6.23963 5.9985 6.1797C6.80316 6.1627 7.57567 6.47348 8.25225 6.74566C8.76845 6.95332 9.22875 7.13851 9.60485 7.13851C9.93345 7.13851 10.3787 6.96208 10.8983 6.75615C11.7217 6.42986 12.7318 6.02953 13.7608 6.13975C15.3492 6.18969 16.8277 6.9887 17.7468 8.29707Z" fill="#1E1E1E"/>
</svg>
