<svg width="25" height="24" viewBox="0 0 25 24" fill="none" xmlns="http://www.w3.org/2000/svg">
<rect x="4.29993" y="9.5" width="17" height="11" rx="1.5" fill="#7000FF"/>
<rect x="4.29993" y="9.5" width="17" height="11" rx="1.5" stroke="#7000FF"/>
<rect x="5.3999" y="10.6001" width="14.8" height="8.8" rx="1" fill="#F0F0FF"/>
<mask id="path-3-inside-1_2_377" fill="white">
<path d="M5.80994 4.6C5.80994 3.71634 6.52628 3 7.40994 3H18.1999C19.0836 3 19.7999 3.71634 19.7999 4.6H5.80994Z"/>
</mask>
<path d="M5.80994 4.6C5.80994 2.83269 7.24263 1.4 9.00994 1.4H16.5999C18.3672 1.4 19.7999 2.83269 19.7999 4.6C19.7999 4.6 19.0836 4.6 18.1999 4.6H7.40994C6.52628 4.6 5.80994 4.6 5.80994 4.6ZM19.7999 4.6H5.80994H19.7999ZM5.80994 4.6V3V4.6ZM19.7999 3V4.6V3Z" fill="#7000FF" mask="url(#path-3-inside-1_2_377)"/>
<mask id="path-5-inside-2_2_377" fill="white">
<path d="M4.80994 7.6C4.80994 6.71634 5.52628 6 6.40994 6H19.1899C20.0736 6 20.7899 6.71634 20.7899 7.6H4.80994Z"/>
</mask>
<path d="M4.80994 7.6C4.80994 6.71634 5.52628 6 6.40994 6H19.1899C20.0736 6 20.7899 6.71634 20.7899 7.6H4.80994Z" fill="#7000FF"/>
<path d="M4.80994 7.6C4.80994 5.83269 6.24263 4.4 8.00994 4.4H17.5899C19.3572 4.4 20.7899 5.83269 20.7899 7.6C20.7899 7.6 20.0736 7.6 19.1899 7.6H6.40994C5.52628 7.6 4.80994 7.6 4.80994 7.6ZM20.7899 7.6H4.80994H20.7899ZM4.80994 7.6V6V7.6ZM20.7899 6V7.6V6Z" fill="#7000FF" mask="url(#path-5-inside-2_2_377)"/>
</svg>
