<svg width="33" height="33" viewBox="0 0 33 33" fill="none" xmlns="http://www.w3.org/2000/svg">
<g id="Link &#226;&#134;&#146; SVG" clip-path="url(#clip0_1_26936)">
<g id="surface1">
<path id="Vector" d="M32.6176 27.6766C32.6176 30.1655 30.662 32.1211 28.1731 32.1211H5.062C2.57311 32.1211 0.617554 30.1655 0.617554 27.6766V4.56554C0.617554 2.07665 2.57311 0.121094 5.062 0.121094H28.1731C30.662 0.121094 32.6176 2.07665 32.6176 4.56554V27.6766Z" fill="#3B5998"/>
<path id="Vector_2" d="M25.862 17.0104H22.8397V28.566H18.3953V17.0104H15.7286V13.4549H18.3953V11.3215C18.3953 8.21042 19.7286 6.34375 23.3731 6.34375H26.3953V9.89931H24.3509C22.9286 9.89931 22.8397 10.4326 22.8397 11.4104V13.4549H26.3953L25.862 17.0104Z" fill="white"/>
</g>
</g>
<defs>
<clipPath id="clip0_1_26936">
<rect width="32" height="32" fill="white" transform="translate(0.617554 0.121094)"/>
</clipPath>
</defs>
</svg>
