<svg width="33" height="33" viewBox="0 0 33 33" fill="none" xmlns="http://www.w3.org/2000/svg">
<g id="Link &#226;&#134;&#146; SVG" clip-path="url(#clip0_1_26924)">
<path id="Vector" d="M16.6176 0.121094C29.9509 0.121094 32.6176 2.78776 32.6176 16.1211C32.6176 29.4544 29.9509 32.1211 16.6176 32.1211C3.28422 32.1211 0.617554 29.4544 0.617554 16.1211C0.617554 2.78776 3.28422 0.121094 16.6176 0.121094Z" fill="url(#paint0_linear_1_26924)"/>
<path id="Vector_2" fill-rule="evenodd" clip-rule="evenodd" d="M16.6174 8.46871C19.1096 8.46871 19.4045 8.47838 20.3889 8.52318C21.2988 8.56464 21.793 8.71658 22.122 8.84438C22.5577 9.01371 22.8685 9.21598 23.1952 9.54238C23.522 9.86911 23.7243 10.18 23.8932 10.6156C24.021 10.9446 24.173 11.4388 24.2144 12.3488C24.2593 13.3328 24.2689 13.628 24.2689 16.1202C24.2689 18.6125 24.2593 18.9074 24.2144 19.8918C24.173 20.8016 24.021 21.2958 23.8932 21.6248C23.724 22.0606 23.5216 22.3714 23.1952 22.6981C22.8685 23.0249 22.5577 23.2272 22.122 23.3961C21.793 23.5239 21.2988 23.6758 20.3889 23.7173C19.4049 23.7622 19.1096 23.7718 16.6174 23.7718C14.1252 23.7718 13.8299 23.7622 12.8459 23.7173C11.936 23.6758 11.4418 23.5239 11.1128 23.3961C10.6771 23.2268 10.3662 23.0245 10.0395 22.6981C9.71277 22.3714 9.51044 22.0606 9.34151 21.6248C9.21371 21.2958 9.06177 20.8016 9.02031 19.8918C8.97551 18.9078 8.96584 18.6125 8.96584 16.1202C8.96584 13.628 8.97551 13.3331 9.02031 12.3488C9.06177 11.4388 9.21371 10.9446 9.34151 10.6156C9.51084 10.18 9.71311 9.86911 10.0395 9.54238C10.3662 9.21564 10.6771 9.01331 11.1128 8.84438C11.4418 8.71658 11.936 8.56464 12.8459 8.52318C13.8302 8.47838 14.1252 8.46871 16.6174 8.46871ZM16.6174 6.78711C14.0826 6.78711 13.7647 6.79784 12.7692 6.84344C11.776 6.88864 11.0976 7.04644 10.5037 7.27724C9.88984 7.51584 9.36931 7.83484 8.85064 8.35384C8.33197 8.87258 8.01257 9.39304 7.77437 10.0066C7.54357 10.6004 7.38577 11.2788 7.34057 12.272C7.29497 13.2676 7.28424 13.5854 7.28424 16.1202C7.28424 18.6551 7.29497 18.973 7.34057 19.9684C7.38577 20.9617 7.54357 21.64 7.77437 22.2339C8.01297 22.8478 8.33197 23.3683 8.85097 23.887C9.37004 24.406 9.89017 24.725 10.5041 24.9636C11.0976 25.1944 11.7763 25.3522 12.7696 25.3974C13.765 25.443 14.0829 25.4538 16.6178 25.4538C19.1526 25.4538 19.4704 25.443 20.466 25.3974C21.4592 25.3522 22.1379 25.1944 22.7314 24.9636C23.3453 24.725 23.8658 24.406 24.3845 23.887C24.9036 23.368 25.2226 22.8478 25.4611 22.2339C25.6919 21.6404 25.8498 20.9617 25.895 19.9684C25.9405 18.973 25.9513 18.6551 25.9513 16.1202C25.9513 13.5854 25.9405 13.2676 25.895 12.272C25.8498 11.2788 25.6919 10.6001 25.4611 10.0066C25.2226 9.39271 24.9036 8.87218 24.3845 8.35351C23.8654 7.83444 23.3453 7.51544 22.7314 7.27691C22.1372 7.04644 21.4588 6.88864 20.4656 6.84344C19.4701 6.79784 19.1522 6.78711 16.6174 6.78711ZM16.6174 11.3277C13.9703 11.3277 11.8248 13.4736 11.8248 16.1202C11.8248 18.767 13.9707 20.9128 16.6174 20.9128C19.2641 20.9128 21.4099 18.767 21.4099 16.1202C21.4099 13.4736 19.2644 11.3277 16.6174 11.3277ZM16.6174 19.2312C14.8991 19.2312 13.5064 17.8382 13.5064 16.1202C13.5064 14.402 14.8994 13.0093 16.6174 13.0093C18.3353 13.0093 19.7283 14.4023 19.7283 16.1202C19.7283 17.8386 18.3357 19.2312 16.6174 19.2312ZM22.7196 11.138C22.7196 11.7566 22.2182 12.258 21.5996 12.258C20.9811 12.258 20.4796 11.7566 20.4796 11.138C20.4796 10.5195 20.9811 10.018 21.5996 10.018C22.2182 10.018 22.7196 10.5195 22.7196 11.138Z" fill="white"/>
</g>
<defs>
<linearGradient id="paint0_linear_1_26924" x1="29.1578" y1="3.89203" x2="3.98035" y2="28.4447" gradientUnits="userSpaceOnUse">
<stop stop-color="#BA00B2"/>
<stop offset="0.5" stop-color="#F40000"/>
<stop offset="1" stop-color="#FFA800"/>
</linearGradient>
<clipPath id="clip0_1_26924">
<rect width="32" height="32" fill="white" transform="translate(0.617554 0.121094)"/>
</clipPath>
</defs>
</svg>
