<svg width="33" height="33" viewBox="0 0 33 33" fill="none" xmlns="http://www.w3.org/2000/svg">
<g id="Link &#226;&#134;&#146; SVG" clip-path="url(#clip0_1_26928)">
<path id="Vector" d="M16.6176 0.121094C29.9509 0.121094 32.6176 2.78776 32.6176 16.1211C32.6176 29.4544 29.9509 32.1211 16.6176 32.1211C3.28422 32.1211 0.617554 29.4544 0.617554 16.1211C0.617554 2.78776 3.28422 0.121094 16.6176 0.121094Z" fill="url(#paint0_linear_1_26928)"/>
<path id="Vector_2" d="M8.47872 15.9863C13.1431 13.9542 16.2533 12.6144 17.8096 11.9671C22.253 10.119 23.1762 9.79797 23.7781 9.78721C23.9104 9.78503 24.2064 9.81783 24.3981 9.97339C24.5599 10.1047 24.6045 10.2821 24.6258 10.4067C24.6471 10.5312 24.6736 10.8148 24.6525 11.0365C24.4117 13.5665 23.3698 19.7061 22.8398 22.5397C22.6155 23.7387 22.1738 24.1407 21.7464 24.1801C20.8172 24.2656 20.1117 23.566 19.2117 22.9762C17.8035 22.053 17.008 21.4784 15.641 20.5776C14.0613 19.5367 15.0854 18.9644 15.9856 18.0294C16.2213 17.7847 20.3152 14.061 20.3944 13.7232C20.4042 13.681 20.4135 13.5235 20.3199 13.4404C20.2264 13.3572 20.0882 13.3857 19.9886 13.4082C19.8474 13.4403 17.5978 14.9272 13.2397 17.869C12.6012 18.3075 12.0228 18.5212 11.5046 18.51C10.9333 18.4976 9.83443 18.1869 9.01748 17.9214C8.01545 17.5956 7.2191 17.4235 7.28845 16.8703C7.32457 16.5822 7.72133 16.2875 8.47872 15.9863Z" fill="white"/>
</g>
<defs>
<linearGradient id="paint0_linear_1_26928" x1="16.6176" y1="0.121094" x2="16.6176" y2="31.8836" gradientUnits="userSpaceOnUse">
<stop stop-color="#2AABEE"/>
<stop offset="1" stop-color="#229ED9"/>
</linearGradient>
<clipPath id="clip0_1_26928">
<rect width="32" height="32" fill="white" transform="translate(0.617554 0.121094)"/>
</clipPath>
</defs>
</svg>
